<?xml version="1.0" encoding="UTF-8" standalone="no"?> <svg xmlns:dc="http://purl.org/dc/elements/1.1/" xmlns:cc="http://creativecommons.org/ns#" xmlns:rdf="http://www.w3.org/1999/02/22-rdf-syntax-ns#" xmlns:svg="http://www.w3.org/2000/svg" xmlns="http://www.w3.org/2000/svg" viewBox="0 0 453.33334 133.33333" height="133.33333" width="453.33334" xml:space="preserve" id="svg2" version="1.1"><metadata id="metadata8"></metadata><defs id="defs6"><clipPath id="clipPath18"><path id="path16" d="M 0,100 H 340 V 0 H 0 Z"></path></clipPath></defs><g transform="matrix(1.3333333,0,0,-1.3333333,0,133.33333)" id="g10"><g id="g12"><g clip-path="url(#clipPath18)" id="g14"><g transform="translate(63.7644,24.2216)" id="g20"><path id="path22" style="fill:#f18f44;fill-opacity:1;fill-rule:nonzero;stroke:none" d="m 0,0 h -14.104 c 0,1.56 -5.233,9.801 -15.7,24.722 -10.963,15.72 -17.206,26.473 -18.728,32.259 h -0.913 c 0.951,-8.335 1.426,-15.873 1.426,-22.61 0,-9.401 0.267,-20.86 0.8,-34.371 h -14.045 c 0.571,11.799 0.856,24.76 0.856,38.882 0,13.893 -0.285,25.712 -0.856,35.457 h 16.957 c 0,-2.019 4.701,-10.068 14.103,-24.151 10.011,-14.96 15.758,-25.105 17.243,-30.433 h 0.856 c -0.913,8.488 -1.37,16.1 -1.37,22.838 0,10.315 -0.267,20.897 -0.799,31.746 H 0 C -0.534,64.898 -0.8,53.08 -0.8,38.882 -0.8,24.569 -0.534,11.608 0,0"></path></g><g transform="translate(117.2092,32.6152)" id="g24"><path id="path26" style="fill:#f18f44;fill-opacity:1;fill-rule:nonzero;stroke:none" d="m 0,0 c 0,-7.729 -3.673,-14.426 -11.02,-20.099 -8.412,-6.508 -20.097,-10.2 -35.056,-11.077 l -1.541,9.536 c 10.01,0.647 17.928,2.683 23.752,6.11 6.052,3.502 9.078,8.011 9.078,13.53 0,9.06 -8.488,13.59 -25.465,13.59 l 1.199,9.192 c 6.281,0 11.409,1.075 15.387,3.226 3.978,2.15 5.967,4.9 5.967,8.251 0,6.09 -4.759,9.135 -14.274,9.135 -4.264,0 -8.05,-0.342 -11.361,-1.028 l 1.026,10.563 c 2.664,0.95 8.108,1.427 16.33,1.427 7.194,0 12.732,-1.465 16.615,-4.397 3.578,-2.778 5.367,-6.528 5.367,-11.247 0,-3.731 -1.353,-7.156 -4.055,-10.276 -2.473,-2.856 -5.5,-4.855 -9.077,-5.997 v -0.856 c 5.062,-0.838 9.183,-3.025 12.361,-6.565 C -1.589,9.478 0,5.138 0,0"></path></g><g transform="translate(175.052,24.2782)" id="g28"><path id="path30" style="fill:#f18f44;fill-opacity:1;fill-rule:nonzero;stroke:none" d="m 0,0 -13.359,-0.456 c -0.61,2.056 -0.914,3.691 -0.914,4.909 h -0.914 c -4.987,-4.109 -10.811,-6.166 -17.471,-6.166 -6.28,0 -11.011,1.648 -14.189,4.94 -3.178,3.292 -4.766,9.868 -4.766,19.725 0,1.18 0.028,2.835 0.085,4.968 0.056,2.132 0.086,3.997 0.086,5.596 0,4.225 -0.363,10.962 -1.085,20.212 l 15.929,0.57 c -0.609,-7.308 -0.914,-14.235 -0.914,-20.782 0,-9.327 0.695,-15.607 2.085,-18.842 1.389,-3.236 4.119,-4.853 8.193,-4.853 4.453,0 8.297,1.065 11.534,3.197 0,20.021 -0.229,33.61 -0.686,40.767 l 15.415,0.513 C -1.351,47.104 -1.541,37.778 -1.541,26.32 -1.541,17.833 -1.027,9.058 0,0"></path></g><g transform="translate(222.5579,78.4623)" id="g32"><path id="path34" style="fill:#f18f44;fill-opacity:1;fill-rule:nonzero;stroke:none" d="m 0,0 -3.311,-13.36 c -2.819,1.142 -5.672,1.712 -8.564,1.712 -5.597,0 -9.288,-2.511 -11.077,-7.536 0,-15.189 0.115,-26.873 0.343,-35.057 h -15.189 c 0.649,11.457 0.972,20.82 0.972,28.09 0,9.06 -0.951,17.644 -2.856,25.752 l 14.561,1.598 c 0.646,-4.187 0.97,-6.643 0.97,-7.365 h 0.914 c 3.502,5.367 8.165,8.05 13.987,8.05 C -6.509,1.884 -3.426,1.256 0,0"></path></g><g transform="translate(265.3831,50.8857)" id="g36"><path id="path38" style="fill:#f18f44;fill-opacity:1;fill-rule:nonzero;stroke:none" d="m 0,0 c 0,5.519 -1.294,10.153 -3.882,13.902 -2.589,3.749 -5.957,5.625 -10.105,5.625 -4.035,0 -7.318,-1.752 -9.849,-5.254 -2.532,-3.502 -3.797,-7.878 -3.797,-13.132 0,-5.519 1.292,-10.154 3.881,-13.904 2.59,-3.748 5.958,-5.623 10.108,-5.623 4.034,0 7.316,1.751 9.848,5.253 C -1.265,-9.631 0,-5.253 0,0 m 14.902,1.713 c 0,-9.593 -2.949,-17.092 -8.849,-22.496 -5.9,-5.406 -12.847,-8.109 -20.84,-8.109 -7.613,0 -14.141,2.465 -19.583,7.395 -5.444,4.928 -8.165,11.866 -8.165,20.81 0,9.631 2.969,17.167 8.906,22.612 5.94,5.443 12.904,8.164 20.898,8.164 7.574,0 14.073,-2.483 19.498,-7.451 5.424,-4.967 8.135,-11.943 8.135,-20.925"></path></g><g transform="translate(337.5002,24.2216)" id="g40"><path id="path42" style="fill:#f18f44;fill-opacity:1;fill-rule:nonzero;stroke:none" d="m 0,0 h -15.188 c 0.837,9.629 1.257,19.374 1.257,29.232 0,5.977 -0.885,10.03 -2.655,12.163 -1.77,2.131 -4.464,3.197 -8.079,3.197 -4.34,0 -8.451,-1.485 -12.333,-4.453 0.189,-14.846 0.285,-28.226 0.285,-40.139 h -15.358 c 0.686,11.913 1.027,21.276 1.027,28.09 0,9.098 -0.933,17.681 -2.797,25.752 l 14.615,1.598 0.972,-6.052 h 0.913 c 5.214,4.491 11.21,6.737 17.986,6.737 5.86,0 10.552,-1.379 14.073,-4.139 C -1.761,49.225 0,44.135 0,36.713 0,35.608 -0.048,34.133 -0.143,32.287 -0.237,30.44 -0.285,28.548 -0.285,26.605 -0.285,21.468 -0.19,12.598 0,0"></path></g></g></g></g></svg> 