<?xml version="1.0" encoding="UTF-8"?>
<svg id="Layer_1" data-name="Layer 1" xmlns="http://www.w3.org/2000/svg" xmlns:xlink="http://www.w3.org/1999/xlink" version="1.1" viewBox="0 0 792 612">
  <defs>
    <style>
      .cls-1 {
        fill: url(#New_Gradient_Swatch_2);
      }

      .cls-1, .cls-2, .cls-3 {
        stroke-width: 0px;
      }

      .cls-2 {
        fill: url(#linear-gradient);
      }

      .cls-3 {
        fill: #003c77;
      }
    </style>
    <linearGradient id="linear-gradient" x1="436.16" y1="427.8" x2="436.16" y2="129.35" gradientUnits="userSpaceOnUse">
      <stop offset=".01" stop-color="#00aeef"/>
      <stop offset=".92" stop-color="#003c77"/>
    </linearGradient>
    <linearGradient id="New_Gradient_Swatch_2" data-name="New Gradient Swatch 2" x1="435.67" y1="427.8" x2="435.67" y2="129.35" gradientUnits="userSpaceOnUse">
      <stop offset=".01" stop-color="#00aeef"/>
      <stop offset=".99" stop-color="#003c77"/>
    </linearGradient>
  </defs>
  <g>
    <path class="cls-2" d="M350.4,194.09c60.94-28.6,133.52-2.38,162.12,58.56,6.88,14.65,10.55,29.98,11.37,45.2l32.22-17.41,34.79,18.79c-2.99-85.52-73.19-153.95-159.44-153.95-69.02,0-127.77,43.82-150.03,105.15h11.51c11.8-23.91,31.45-44.14,57.46-56.34Z"/>
    <path class="cls-1" d="M522.7,322.63c-5.91,38.87-30.47,74.18-68.74,92.14-60.19,28.24-131.7,2.99-161.01-56.34h-11.52c22.26,61.33,81.01,105.15,150.03,105.15,81.76,0,149.11-61.49,158.45-140.74l-33.8-18.26-33.41,18.05Z"/>
  </g>
  <g>
    <path class="cls-3" d="M220.37,315.31c4.75,4.75,12.07,8.71,21.08,8.71,5.84,0,9.4-2.47,9.4-5.64,0-3.76-4.26-5.25-11.28-6.73-10.89-2.18-26.13-4.95-26.13-20.59,0-11.09,9.4-20.69,26.33-20.69,10.59,0,19.8,3.17,26.82,9.21l-9.3,12.17c-5.54-4.55-12.77-6.83-18.61-6.83s-7.82,2.28-7.82,5.15c0,3.46,4.06,4.65,11.38,6.04,10.89,2.28,25.93,5.44,25.93,20.39,0,13.26-9.8,22.07-27.51,22.07-13.36,0-22.67-4.16-29.3-10.49l9.01-12.77Z"/>
    <path class="cls-3" d="M276.59,271.37h17.02v66.02h-17.02v-66.02Z"/>
    <path class="cls-3" d="M310.24,315.31c4.75,4.75,12.07,8.71,21.08,8.71,5.84,0,9.4-2.47,9.4-5.64,0-3.76-4.26-5.25-11.28-6.73-10.89-2.18-26.13-4.95-26.13-20.59,0-11.09,9.4-20.69,26.33-20.69,10.59,0,19.8,3.17,26.82,9.21l-9.3,12.17c-5.54-4.55-12.77-6.83-18.61-6.83s-7.82,2.28-7.82,5.15c0,3.46,4.06,4.65,11.38,6.04,10.89,2.28,25.93,5.44,25.93,20.39,0,13.26-9.8,22.07-27.51,22.07-13.36,0-22.67-4.16-29.3-10.49l9.01-12.77Z"/>
    <path class="cls-3" d="M363.08,304.43c0-20.39,15.44-34.15,35.24-34.15,16.43,0,24.94,9.01,29.3,17.72l-14.65,6.93c-2.18-5.25-7.82-9.6-14.65-9.6-10.29,0-17.92,8.31-17.92,19.1s7.62,19.1,17.92,19.1c6.83,0,12.47-4.36,14.65-9.6l14.65,6.93c-4.26,8.51-12.87,17.72-29.3,17.72-19.79,0-35.24-13.86-35.24-34.15Z"/>
    <path class="cls-3" d="M467.4,270.28c20.19,0,35.24,14.05,35.24,34.15s-15.05,34.15-35.24,34.15-35.33-14.05-35.33-34.15,15.14-34.15,35.33-34.15ZM467.4,285.33c-10.99,0-18.01,8.31-18.01,19.1s7.03,19.1,18.01,19.1,17.92-8.41,17.92-19.1-7.03-19.1-17.92-19.1Z"/>
  </g>
</svg>